<?xml version="1.0" standalone="no"?><svg xmlns="http://www.w3.org/2000/svg" viewBox="0 0 1440 320"><path fill=" #04bb8b" fill-opacity="1" d="M0,160L10.9,176C21.8,192,44,224,65,229.3C87.3,235,109,213,131,192C152.7,171,175,149,196,122.7C218.2,96,240,64,262,80C283.6,96,305,160,327,154.7C349.1,149,371,75,393,53.3C414.5,32,436,64,458,69.3C480,75,502,53,524,85.3C545.5,117,567,203,589,229.3C610.9,256,633,224,655,181.3C676.4,139,698,85,720,53.3C741.8,21,764,11,785,32C807.3,53,829,107,851,128C872.7,149,895,139,916,154.7C938.2,171,960,213,982,202.7C1003.6,192,1025,128,1047,106.7C1069.1,85,1091,107,1113,122.7C1134.5,139,1156,149,1178,144C1200,139,1222,117,1244,112C1265.5,107,1287,117,1309,117.3C1330.9,117,1353,107,1375,117.3C1396.4,128,1418,160,1429,176L1440,192L1440,0L1429.1,0C1418.2,0,1396,0,1375,0C1352.7,0,1331,0,1309,0C1287.3,0,1265,0,1244,0C1221.8,0,1200,0,1178,0C1156.4,0,1135,0,1113,0C1090.9,0,1069,0,1047,0C1025.5,0,1004,0,982,0C960,0,938,0,916,0C894.5,0,873,0,851,0C829.1,0,807,0,785,0C763.6,0,742,0,720,0C698.2,0,676,0,655,0C632.7,0,611,0,589,0C567.3,0,545,0,524,0C501.8,0,480,0,458,0C436.4,0,415,0,393,0C370.9,0,349,0,327,0C305.5,0,284,0,262,0C240,0,218,0,196,0C174.5,0,153,0,131,0C109.1,0,87,0,65,0C43.6,0,22,0,11,0L0,0Z"></path></svg>